G04 DipTrace 4.2.0.1*
G04 1 - Top.gbr*
%MOIN*%
G04 #@! TF.FileFunction,Copper,L1,Top*
G04 #@! TF.Part,Single*
G04 #@! TA.AperFunction,ComponentPad*
%ADD18C,0.062992*%
%ADD19R,0.062992X0.062992*%
%ADD20R,0.075591X0.075591*%
%ADD21C,0.075591*%
%ADD22R,0.090551X0.090551*%
%ADD23C,0.090551*%
%ADD25R,0.04811X0.04811*%
%ADD26C,0.04811*%
%ADD27C,0.05*%
%ADD28C,0.05*%
%ADD29R,0.066929X0.066929*%
%ADD30C,0.066929*%
%ADD31R,0.074803X0.074803*%
%ADD32C,0.074803*%
%ADD33C,0.048*%
%FSLAX26Y26*%
G04*
G70*
G90*
G75*
G01*
G04 Top*
%LPD*%
D18*
X738976Y3405512D3*
D19*
X638976D3*
D18*
X1052362Y3228346D3*
D19*
X1152362D3*
D18*
X984250Y1742913D3*
D19*
X984254Y1642913D3*
D18*
X638976Y2755906D3*
D19*
X738976D3*
D18*
X638976Y2992126D3*
D19*
X738976D3*
D18*
X638976Y3228346D3*
D19*
X738976D3*
D18*
X638976Y2519685D3*
D19*
X738976D3*
D18*
X638976Y2047244D3*
D19*
X738976D3*
D18*
X638976Y2283465D3*
D19*
X738976D3*
D20*
X1692913Y984252D3*
D21*
Y884252D3*
Y784252D3*
Y684252D3*
D22*
X1092520Y3759843D3*
D23*
X1230315D3*
D22*
X620079D3*
D23*
X757874D3*
D25*
X1533858Y3287402D3*
D26*
X1633858Y3387402D3*
X1733858Y3287402D3*
D27*
X1783858Y3759843D3*
D28*
X1483858D3*
D29*
X718499Y1820870D3*
D30*
X541333Y1820863D3*
X541344Y1564957D3*
X718509Y1564964D3*
D31*
X1061417Y3523622D3*
D32*
X1161417D3*
X1261417D3*
D19*
X1724817Y1456303D3*
D18*
X1724815Y1556303D3*
X1724813Y1656303D3*
X1724811Y1756303D3*
X1724809Y1856303D3*
X1724806Y1956303D3*
X1724804Y2056303D3*
X1724802Y2156303D3*
X1724800Y2256303D3*
X1724798Y2356303D3*
X1724795Y2456303D3*
X1724793Y2556303D3*
X1724791Y2656303D3*
X1724789Y2756303D3*
X1424789Y2756296D3*
X1424791Y2656296D3*
X1424793Y2556296D3*
X1424795Y2456296D3*
X1424798Y2356296D3*
X1424800Y2256296D3*
X1424802Y2156296D3*
X1424804Y2056296D3*
X1424806Y1956296D3*
X1424809Y1856296D3*
X1424811Y1756296D3*
X1424813Y1656296D3*
X1424815Y1556296D3*
X1424817Y1456296D3*
D33*
X1043305Y2260354D3*
X1043310Y2070354D3*
D27*
X2256299Y3759843D3*
D28*
X1956299D3*
D27*
X2428740D3*
D28*
X2728740D3*
D20*
X3346457Y3346457D3*
D21*
Y3246457D3*
Y3146457D3*
Y3046457D3*
Y2946457D3*
Y2846457D3*
Y2746457D3*
Y2646457D3*
Y2546457D3*
Y2446457D3*
Y2346457D3*
Y2246457D3*
Y2146457D3*
Y2046457D3*
Y1946457D3*
Y1846457D3*
M02*
