M48
INCH
T01C0.022
T02C0.0281
T03C0.032
T04C0.0354
T05C0.0394
T06C0.0433
T07C0.0504
T08C0.0551
%
T01
X+017839Y+037598
X+019563Y+037598
X+022563Y+037598
X+024287Y+037598
X+027287Y+037598
X+014839Y+037598
T02
X+015339Y+032874
X+016339Y+033874
X+017339Y+032874
T03
X+010433Y+022604
X+010433Y+020704
T04
X+017248Y+014563
X+017248Y+015563
X+017248Y+016563
X+017248Y+017563
X+017248Y+018563
X+017248Y+019563
X+017248Y+020563
X+017248Y+021563
X+017248Y+022563
X+017248Y+023563
X+017248Y+024563
X+017248Y+025563
X+017248Y+026563
X+017248Y+027563
X+014248Y+027563
X+014248Y+026563
X+014248Y+025563
X+014248Y+024563
X+014248Y+023563
X+014248Y+022563
X+014248Y+021563
X+014248Y+020563
X+014248Y+019563
X+014248Y+018563
X+014248Y+017563
X+014248Y+016563
X+014248Y+015563
X+014248Y+014563
T05
X+007390Y+034055
X+006390Y+034055
X+006390Y+032283
X+007390Y+032283
X+007390Y+029921
X+006390Y+029921
X+006390Y+027559
X+007390Y+027559
X+007390Y+025197
X+006390Y+025197
X+006390Y+022835
X+007390Y+022835
X+007390Y+020472
X+006390Y+020472
X+007185Y+018209
X+005413Y+018209
X+005413Y+015650
X+007185Y+015650
X+009843Y+016429
X+009842Y+017429
X+010524Y+032283
X+011524Y+032283
T06
X+010614Y+035236
X+011614Y+035236
X+012614Y+035236
T07
X+016929Y+009843
X+016929Y+008843
X+016929Y+007843
X+016929Y+006843
X+033465Y+018465
X+033465Y+019465
X+033465Y+020465
X+033465Y+021465
X+033465Y+022465
X+033465Y+023465
X+033465Y+024465
X+033465Y+025465
X+033465Y+026465
X+033465Y+027465
X+033465Y+028465
X+033465Y+029465
X+033465Y+030465
X+033465Y+031465
X+033465Y+032465
X+033465Y+033465
T08
X+010925Y+037598
X+012303Y+037598
X+007579Y+037598
X+006201Y+037598
T00
M30
