G04 DipTrace 4.2.0.1*
G04 TopMask.gbr*
%MOIN*%
G04 #@! TF.FileFunction,Soldermask,Top*
G04 #@! TF.Part,Single*
%ADD29R,0.066929X0.066929*%
%ADD44C,0.051937*%
%ADD46C,0.07874*%
%ADD47C,0.070866*%
%ADD48R,0.07874X0.07874*%
%ADD49R,0.070866X0.070866*%
%ADD51C,0.053937*%
%ADD53C,0.053937*%
%ADD55C,0.052047*%
%ADD57R,0.052047X0.052047*%
%ADD59C,0.094488*%
%ADD61R,0.094488X0.094488*%
%ADD63C,0.079528*%
%ADD65R,0.079528X0.079528*%
%ADD68C,0.066929*%
%FSLAX26Y26*%
G04*
G70*
G90*
G75*
G01*
G04 TopMask*
%LPD*%
D68*
X738976Y3405512D3*
D29*
X638976D3*
D68*
X1052362Y3228346D3*
D29*
X1152362D3*
D68*
X984250Y1742913D3*
D29*
X984254Y1642913D3*
D68*
X638976Y2755906D3*
D29*
X738976D3*
D68*
X638976Y2992126D3*
D29*
X738976D3*
D68*
X638976Y3228346D3*
D29*
X738976D3*
D68*
X638976Y2519685D3*
D29*
X738976D3*
D68*
X638976Y2047244D3*
D29*
X738976D3*
D68*
X638976Y2283465D3*
D29*
X738976D3*
D65*
X1692913Y984252D3*
D63*
Y884252D3*
Y784252D3*
Y684252D3*
D61*
X1092520Y3759843D3*
D59*
X1230315D3*
D61*
X620079D3*
D59*
X757874D3*
D57*
X1533858Y3287402D3*
D55*
X1633858Y3387402D3*
X1733858Y3287402D3*
D53*
X1783858Y3759843D3*
D51*
X1483858D3*
D49*
X718499Y1820870D3*
D47*
X541333Y1820863D3*
X541344Y1564957D3*
X718509Y1564964D3*
D48*
X1061417Y3523622D3*
D46*
X1161417D3*
X1261417D3*
D29*
X1724817Y1456303D3*
D68*
X1724815Y1556303D3*
X1724813Y1656303D3*
X1724811Y1756303D3*
X1724809Y1856303D3*
X1724806Y1956303D3*
X1724804Y2056303D3*
X1724802Y2156303D3*
X1724800Y2256303D3*
X1724798Y2356303D3*
X1724795Y2456303D3*
X1724793Y2556303D3*
X1724791Y2656303D3*
X1724789Y2756303D3*
X1424789Y2756296D3*
X1424791Y2656296D3*
X1424793Y2556296D3*
X1424795Y2456296D3*
X1424798Y2356296D3*
X1424800Y2256296D3*
X1424802Y2156296D3*
X1424804Y2056296D3*
X1424806Y1956296D3*
X1424809Y1856296D3*
X1424811Y1756296D3*
X1424813Y1656296D3*
X1424815Y1556296D3*
X1424817Y1456296D3*
D44*
X1043305Y2260354D3*
X1043310Y2070354D3*
D53*
X2256299Y3759843D3*
D51*
X1956299D3*
D53*
X2428740D3*
D51*
X2728740D3*
D65*
X3346457Y3346457D3*
D63*
Y3246457D3*
Y3146457D3*
Y3046457D3*
Y2946457D3*
Y2846457D3*
Y2746457D3*
Y2646457D3*
Y2546457D3*
Y2446457D3*
Y2346457D3*
Y2246457D3*
Y2146457D3*
Y2046457D3*
Y1946457D3*
Y1846457D3*
M02*
